<svg width="50" height="35" viewBox="0 0 50 35" fill="none" xmlns="http://www.w3.org/2000/svg">
<path fill-rule="evenodd" clip-rule="evenodd" d="M35.1394 17.5798C40.5194 17.5798 44.8094 14.8198 44.8094 10.8198C44.8094 6.81977 40.0794 4.30977 35.1394 4.30977C30.4894 4.30977 25.5394 6.70976 25.5394 10.8198C25.5394 14.6698 29.6794 17.5798 35.1394 17.5798ZM35.1394 7.32977C38.2994 7.32977 40.8794 8.85977 40.8794 11.1098C40.8794 13.3598 38.2994 14.8498 35.1394 14.8498C31.9794 14.8498 29.4694 13.3998 29.4694 11.1098C29.4694 8.81977 31.9794 7.32977 35.1394 7.32977Z" fill="#FFD700"/>
<path d="M35.1394 0.00976562C42.9594 0.00976562 49.2094 4.26977 49.2094 10.5198C49.2094 14.8498 47.372 21.2946 38.6387 30.7404C37.5748 31.8911 36.4111 33.0661 35.1394 34.2598C33.485 34.2598 31.9211 34.0429 30.5 33.6344C31.5243 32.79 32.4849 31.9491 33.3854 31.1152C37.6314 27.1827 40.5402 23.4034 42.4768 20.1337C42.7968 19.5933 43.0903 19.0669 43.3589 18.5559C44.5536 16.2832 45.8994 13.5085 45.8994 10.8598C45.8994 6.34977 41.0694 3.25977 35.1394 3.25977H35.1294C29.0994 3.25977 24.4394 6.52977 24.4794 10.8598C24.4794 19.5874 38.3534 20.0816 43.3996 15.9265C41.4983 20.3227 37.3983 26.5659 29.4694 33.2953C28.1862 32.8171 27.0444 32.1706 26.0894 31.3779C26.9855 30.7936 27.868 30.135 28.7261 29.4288C32.2669 26.5148 35.3924 22.7903 37.3473 20.1337C30.7091 20.9174 21.1094 18.8491 21.1094 10.5198C21.1094 4.25977 27.3194 0.00976562 35.1394 0.00976562Z" fill="#FFD700"/>
<path fill-rule="evenodd" clip-rule="evenodd" d="M14.0696 16.68C8.68961 16.68 4.39961 19.44 4.39961 23.44C4.39961 27.44 9.12961 29.95 14.0696 29.95C18.7196 29.95 23.6696 27.55 23.6696 23.44C23.6696 19.59 19.5296 16.68 14.0696 16.68ZM14.0696 26.93C10.9096 26.93 8.32961 25.4 8.32961 23.15C8.32961 20.9 10.9096 19.41 14.0696 19.41C17.2296 19.41 19.7396 20.86 19.7396 23.15C19.7396 25.44 17.2296 26.93 14.0696 26.93Z" fill="#FFD700"/>
<path d="M14.0696 34.25C6.24961 34.25 -0.000396729 29.99 -0.000396729 23.74C-0.000396729 19.41 1.83696 12.9651 10.5703 3.51936C11.6342 2.36869 12.7979 1.19364 14.0696 0C15.724 0 17.2879 0.216885 18.709 0.625378C17.6847 1.46975 16.7241 2.31062 15.8236 3.1446C11.5775 7.0771 8.66878 10.8563 6.73221 14.1261C6.41217 14.6665 6.11868 15.1929 5.85009 15.7038C4.65537 17.9766 3.30962 20.7512 3.30962 23.4C3.30962 27.91 8.13961 31 14.0696 31H14.0796C20.1096 31 24.7696 27.73 24.7296 23.4C24.7296 14.6724 10.8556 14.1782 5.80939 18.3333C7.71071 13.9371 11.8107 7.69382 19.7396 0.964447C21.0228 1.44269 22.1645 2.08912 23.1196 2.8819C22.2235 3.46616 21.341 4.12475 20.4829 4.83094C16.9421 7.74498 13.8166 11.4695 11.8617 14.1261C18.4999 13.3423 28.0996 15.4107 28.0996 23.74C28.0996 30 21.8896 34.25 14.0696 34.25Z" fill="#FFD700"/>
</svg>
