<svg width="128" height="90" viewBox="0 0 128 90" fill="none" xmlns="http://www.w3.org/2000/svg">
<path fill-rule="evenodd" clip-rule="evenodd" d="M91.3992 45.9052C105.394 45.9052 116.553 38.6967 116.553 28.2496C116.553 17.8026 104.249 11.2471 91.3992 11.2471C79.3037 11.2471 66.4277 17.5153 66.4277 28.2496C66.4277 38.3049 77.1967 45.9052 91.3992 45.9052ZM91.3992 19.1346C99.6189 19.1346 106.33 23.1306 106.33 29.0071C106.33 34.8836 99.6189 38.775 91.3992 38.775C83.1795 38.775 76.6504 34.988 76.6504 29.0071C76.6504 23.026 83.1795 19.1346 91.3992 19.1346Z" fill="#FFD700"/>
<path d="M91.4009 0.0244141C111.742 0.0244141 128 11.1506 128 27.4741C128 38.783 123.22 55.6155 100.503 80.2858C97.736 83.291 94.709 86.3599 91.4009 89.4774C87.0976 89.4774 83.0296 88.911 79.333 87.8441C81.9974 85.6388 84.496 83.4426 86.8384 81.2644C97.8833 70.9937 105.45 61.1233 110.487 52.5833C111.319 51.1721 112.083 49.7971 112.781 48.4626C115.889 42.5268 119.39 35.2801 119.39 28.3621C119.39 16.583 106.826 8.51269 91.4009 8.51269H91.375C75.6898 8.51269 63.5683 17.0532 63.6723 28.3621C63.6723 51.1567 99.7611 52.4474 112.887 41.5951C107.942 53.077 97.2768 69.3829 76.6521 86.9585C73.3145 85.7095 70.3445 84.0211 67.8601 81.9506C70.1912 80.4247 72.4867 78.7046 74.7188 76.8601C83.9291 69.2493 92.0591 59.5218 97.1441 52.5833C79.8768 54.6304 54.9062 49.2284 54.9062 27.4741C54.9062 11.1245 71.0596 0.0244141 91.4009 0.0244141Z" fill="#FFD700"/>
<path fill-rule="evenodd" clip-rule="evenodd" d="M36.6106 43.5625C22.6161 43.5625 11.457 50.771 11.457 61.2181C11.457 71.6651 23.7607 78.2206 36.6106 78.2206C48.7061 78.2206 61.582 71.9524 61.582 61.2181C61.582 51.1628 50.813 43.5625 36.6106 43.5625ZM36.6106 70.3331C28.3908 70.3331 21.6797 66.3371 21.6797 60.4606C21.6797 54.5841 28.3908 50.6927 36.6106 50.6927C44.8303 50.6927 51.3594 54.4798 51.3594 60.4606C51.3594 66.4417 44.8303 70.3331 36.6106 70.3331Z" fill="#FFD700"/>
<path d="M36.5988 89.453C16.2575 89.453 0 78.3269 0 62.0034C0 50.6944 4.77935 33.8619 27.4963 9.19168C30.2637 6.18644 33.2907 3.11758 36.5988 0C40.9021 0 44.9701 0.566449 48.6667 1.63336C46.0023 3.83863 43.5037 6.03483 41.1613 8.21301C30.1164 18.4838 22.5501 28.3541 17.5128 36.8941C16.6804 38.3054 15.9169 39.6804 15.2183 41.0148C12.1105 46.9506 8.61002 54.1974 8.61002 61.1153C8.61002 72.8944 21.1737 80.9648 36.5988 80.9648H36.6247C52.31 80.9648 64.4314 72.4243 64.3274 61.1153C64.3274 38.3208 28.2386 37.0301 15.1124 47.8823C20.058 36.4005 30.7229 20.0945 51.3476 2.51894C54.6852 3.76791 57.6552 5.45633 60.1396 7.52688C57.8085 9.05274 55.513 10.7728 53.2809 12.6173C44.0706 20.2281 35.9406 29.9557 30.8556 36.8941C48.1229 34.847 73.0935 40.2491 73.0935 62.0034C73.0935 78.353 56.9401 89.453 36.5988 89.453Z" fill="#FFD700"/>
</svg>
