<svg width="150" height="35" viewBox="0 0 150 35" fill="none" xmlns="http://www.w3.org/2000/svg">
<g clip-path="url(#clip0_2997_282)">
<path d="M0 0.980469H17.23C22.94 0.980469 27.23 5.27047 27.23 10.0305C27.23 12.3205 26.18 14.7605 24.5 16.0305C27.37 17.7405 28.97 20.6105 28.97 24.0305C28.97 29.4105 25.04 33.7705 17.45 33.7705H0V0.980469ZM16.98 31.0105C22.47 31.0105 25.85 28.2105 25.85 23.5605C25.85 20.0305 23.23 17.3105 19.92 16.5105C22.47 15.5305 24.18 13.3805 24.18 10.4805C24.18 6.48047 21.3 3.72047 17.23 3.72047H3.02V31.0205H16.98V31.0105ZM4.11 4.80047H17.23C20.68 4.80047 23.08 7.09047 23.08 10.4705C23.08 13.8505 20.57 16.0705 17.08 16.0705H4.11V4.80047ZM4.11 17.1205H17.05C21.56 17.1205 24.72 19.8105 24.72 23.5505C24.72 27.5805 21.7 29.9105 16.98 29.9105H4.11V17.1105V17.1205ZM16.61 13.3805C18.79 13.3805 20.03 12.0705 20.03 10.4705C20.03 8.73047 18.83 7.53047 16.65 7.53047H7.12V13.3805H16.61ZM17.27 27.3005C19.92 27.3005 21.52 25.7405 21.52 23.5905C21.52 21.4405 19.81 19.8505 17.19 19.8505H7.13V27.3005H17.27Z" fill="#FFD700"/>
<path d="M0 33.5105V0.980469H17.09C22.54 0.980469 26.98 4.98047 26.98 9.92047C26.98 12.2105 25.89 14.5705 24.29 15.8405C24.26 15.8705 24.25 15.9105 24.25 15.9505C24.25 15.9905 24.29 16.0205 24.32 16.0605C27.16 17.7705 28.72 20.5705 28.72 23.9105C28.72 29.7605 24.25 33.5405 17.31 33.5405H0V33.5005V33.5105ZM2.91 3.45047C2.85 3.45047 2.8 3.50047 2.8 3.56047V30.8605C2.8 30.9205 2.85 30.9705 2.91 30.9705H16.87C22.4 30.9705 25.85 28.0605 25.85 23.3705C25.85 20.1005 23.56 17.2605 20.18 16.2805C22.72 15.1505 24.18 13.0105 24.18 10.2805C24.18 6.21047 21.27 3.41047 17.12 3.41047H2.91V3.45047ZM4.11 29.7005V17.1205H16.94C21.37 17.1205 24.46 19.7005 24.46 23.4505C24.46 27.2005 21.62 29.7005 16.83 29.7005H4.11ZM6.98 19.6305C6.92 19.6305 6.87 19.6805 6.87 19.7405V27.1905C6.87 27.2505 6.92 27.3005 6.98 27.3005H17.15C19.77 27.3005 21.55 25.7705 21.55 23.4805C21.55 21.1905 19.66 19.6305 17.12 19.6305H6.98ZM4.11 15.8105V4.80047H17.09C20.51 4.80047 22.83 7.02047 22.83 10.3605C22.83 13.7005 20.39 15.8105 16.94 15.8105H4.11ZM6.98 7.28047C6.92 7.28047 6.87 7.33047 6.87 7.39047V13.2405C6.87 13.3005 6.92 13.3505 6.98 13.3505H16.51C18.95 13.3505 20.04 11.8205 20.04 10.3305C20.04 8.48047 18.66 7.24047 16.55 7.24047H6.98V7.28047Z" fill="#FFD700"/>
<path d="M0.25 33.5102V1.2002H17.23C22.61 1.2002 26.97 5.1602 26.97 10.0002C26.97 12.2502 25.92 14.5802 24.35 15.8202C24.28 15.8702 24.24 15.9502 24.24 16.0402C24.24 16.1202 24.29 16.2002 24.35 16.2602C27.15 17.9302 28.68 20.7002 28.68 24.0002C28.68 29.7802 24.24 33.4902 17.41 33.4902H0.25V33.5302V33.5102ZM3.02 3.4502C2.88 3.4502 2.77 3.5602 2.77 3.6902C2.77 3.6902 2.77 3.6902 2.77 3.7002V31.0002C2.77 31.1402 2.87 31.2502 3.01 31.2502C3.01 31.2502 3.01 31.2502 3.02 31.2502H16.98C22.61 31.2502 26.1 28.3102 26.1 23.5402C26.1 20.3402 23.92 17.5102 20.68 16.4502C23.08 15.2902 24.42 13.1402 24.42 10.4502C24.42 6.3102 21.48 3.4302 17.22 3.4302H3.02V3.4502ZM4.37 29.7002V17.3802H17.05C21.41 17.3802 24.47 19.9202 24.47 23.5602C24.47 27.3802 21.67 29.6702 16.98 29.6702H4.36V29.7002H4.37ZM7.13 19.6302C6.99 19.6302 6.88 19.7402 6.88 19.8702C6.88 19.8702 6.88 19.8702 6.88 19.8802V27.3302C6.88 27.4702 6.99 27.5802 7.12 27.5902H17.3C19.99 27.5902 21.81 25.9902 21.81 23.6302C21.81 21.2702 19.88 19.6302 17.23 19.6302H7.13ZM4.36 15.8102V5.0502H17.23C20.57 5.0502 22.83 7.2302 22.83 10.4702C22.83 13.7102 20.47 15.8102 17.05 15.8102H4.36ZM7.12 7.2702C6.98 7.2702 6.87 7.3802 6.87 7.5102C6.87 7.5102 6.87 7.5102 6.87 7.5202V13.3702C6.87 13.5102 6.98 13.6202 7.11 13.6202C7.11 13.6202 7.11 13.6202 7.12 13.6202H16.65C19.16 13.6202 20.32 12.0202 20.32 10.4602C20.32 8.5002 18.9 7.2602 16.69 7.2602H7.12V7.2702Z" fill="#FFD700"/>
<path d="M29.8105 0.980469H54.0205V7.56047H36.9405V13.4105H49.6605V19.9205H36.9405V27.1905H54.0205V33.7705H29.8105V0.980469ZM51.6205 31.0105V29.9205H33.9105V17.2005H47.2105V16.1105H33.9105V4.80047H51.6205V3.71047H32.8305V31.0105H51.6205Z" fill="#FFD700"/>
<path d="M29.8105 33.5105V0.980469H53.7605V7.31047H36.7805C36.7205 7.31047 36.6705 7.36047 36.6705 7.42047V13.2705C36.6705 13.3305 36.7205 13.3805 36.7805 13.3805H49.3905V19.6305H36.7805C36.7205 19.6305 36.6705 19.6805 36.6705 19.7405V27.0505C36.6705 27.1205 36.7205 27.1705 36.7805 27.2005H53.7605V33.5205H29.8105V33.5105ZM32.7105 3.45047C32.6505 3.45047 32.6005 3.50047 32.6005 3.56047V30.8605C32.6005 30.9205 32.6505 30.9605 32.7105 30.9705H51.5005C51.5605 30.9705 51.6105 30.9205 51.6105 30.8605V29.7705C51.6105 29.7105 51.5605 29.6605 51.5005 29.6605H33.9105V17.1905H47.1105C47.1705 17.1905 47.2205 17.1405 47.2205 17.0805V15.9905C47.2205 15.9305 47.1705 15.8805 47.1105 15.8805H33.9105V4.80047H51.4705C51.5305 4.80047 51.5805 4.75047 51.5805 4.69047V3.60047C51.5805 3.54047 51.5305 3.49047 51.4705 3.49047H32.7105V3.46047V3.45047Z" fill="#FFD700"/>
<path d="M30.0605 33.5102V1.2002H53.7605V7.2702H36.9305C36.7905 7.2702 36.6805 7.3802 36.6805 7.5102C36.6805 7.5102 36.6805 7.5102 36.6805 7.5202V13.3702C36.6805 13.5102 36.7805 13.6202 36.9205 13.6202C36.9205 13.6202 36.9205 13.6202 36.9305 13.6202H49.4005V19.6202H36.9305C36.7905 19.6202 36.6805 19.7202 36.6805 19.8602C36.6805 19.8602 36.6805 19.8602 36.6805 19.8702V27.1802C36.6805 27.3202 36.7905 27.4302 36.9205 27.4302C36.9205 27.4302 36.9205 27.4302 36.9305 27.4302H53.7605V33.5002H30.0605V33.5102ZM32.8205 3.4502C32.6805 3.4502 32.5705 3.5602 32.5605 3.6902C32.5605 3.6902 32.5605 3.6902 32.5605 3.7002V31.0002C32.5605 31.1402 32.6705 31.2502 32.8005 31.2502C32.8005 31.2502 32.8005 31.2502 32.8105 31.2502H51.6005C51.7405 31.2502 51.8505 31.1502 51.8505 31.0102C51.8505 31.0102 51.8505 31.0102 51.8505 31.0002V29.9102C51.8505 29.7702 51.7505 29.6602 51.6105 29.6602C51.6105 29.6602 51.6105 29.6602 51.6005 29.6602H34.1505V17.4502H47.2005C47.3405 17.4502 47.4505 17.3502 47.4505 17.2102C47.4505 17.2102 47.4505 17.2102 47.4505 17.2002V16.1102C47.4505 15.9702 47.3405 15.8602 47.2105 15.8502C47.2105 15.8502 47.2105 15.8502 47.2005 15.8502H34.1505V5.0502H51.6005C51.7405 5.0502 51.8505 4.9502 51.8505 4.8102C51.8505 4.8102 51.8505 4.8102 51.8505 4.8002V3.7102C51.8505 3.5702 51.7405 3.4602 51.6105 3.4502C51.6105 3.4502 51.6105 3.4502 51.6005 3.4502H32.8105H32.8205Z" fill="#FFD700"/>
<path d="M63.1397 7.56047H54.9297V0.980469H78.7397V7.56047H70.3797V33.7705H63.1097V7.56047H63.1497H63.1397ZM67.2797 31.0105V4.80047H76.3297V3.71047H57.2797V4.80047H66.1897V31.0105H67.2797Z" fill="#FFD700"/>
<path d="M63.1409 33.5105V7.45047C63.1409 7.39047 63.0909 7.34047 63.0309 7.34047H54.9609V0.980469H78.5209V7.34047H70.2709C70.2109 7.34047 70.1609 7.39047 70.1609 7.45047V33.5105H63.1409ZM65.9809 30.9005C65.9809 30.9605 66.0309 31.0105 66.0909 31.0105H67.1809C67.2409 31.0105 67.2909 30.9605 67.2909 30.9005V4.80047H76.2309C76.2909 4.80047 76.3409 4.75047 76.3409 4.69047V3.60047C76.3409 3.54047 76.2909 3.49047 76.2309 3.49047H57.1809C57.1209 3.49047 57.0809 3.54047 57.0709 3.60047V4.69047C57.0709 4.75047 57.1209 4.80047 57.1809 4.80047H65.9409V30.9005H65.9809Z" fill="#FFD700"/>
<path d="M63.3604 33.5102V7.56023C63.3604 7.42023 63.2604 7.31023 63.1204 7.31023C63.1204 7.31023 63.1204 7.31023 63.1104 7.31023H55.1504V1.24023H78.4504V7.35023H70.3404C70.2004 7.35023 70.0904 7.45023 70.0904 7.59023C70.0904 7.59023 70.0904 7.59023 70.0904 7.60023V33.5502H63.3704V33.5102H63.3604ZM65.9804 31.0102C65.9804 31.1502 66.0904 31.2602 66.2204 31.2602C66.2204 31.2602 66.2204 31.2602 66.2304 31.2602H67.3204C67.4604 31.2602 67.5704 31.1602 67.5704 31.0202C67.5704 31.0202 67.5704 31.0202 67.5704 31.0102V5.05023H76.3704C76.5104 5.05023 76.6204 4.95023 76.6204 4.81023C76.6204 4.81023 76.6204 4.81023 76.6204 4.80023V3.71023C76.6204 3.57023 76.5104 3.46023 76.3804 3.46023C76.3804 3.46023 76.3804 3.46023 76.3704 3.46023H57.3204C57.1804 3.46023 57.0704 3.57023 57.0704 3.70023C57.0704 3.70023 57.0704 3.70023 57.0704 3.71023V4.80023C57.0704 4.94023 57.1704 5.05023 57.3104 5.05023C57.3104 5.05023 57.3104 5.05023 57.3204 5.05023H65.9704V31.0002L65.9804 31.0102Z" fill="#FFD700"/>
<path fill-rule="evenodd" clip-rule="evenodd" d="M113.139 17.5798C118.519 17.5798 122.809 14.8198 122.809 10.8198C122.809 6.81977 118.079 4.30977 113.139 4.30977C108.489 4.30977 103.539 6.70976 103.539 10.8198C103.539 14.6698 107.679 17.5798 113.139 17.5798ZM113.139 7.32977C116.299 7.32977 118.879 8.85977 118.879 11.1098C118.879 13.3598 116.299 14.8498 113.139 14.8498C109.979 14.8498 107.469 13.3998 107.469 11.1098C107.469 8.81977 109.979 7.32977 113.139 7.32977Z" fill="#FFD700"/>
<path d="M113.139 0.00976562C120.959 0.00976562 127.209 4.26977 127.209 10.5198C127.209 14.8498 125.372 21.2946 116.639 30.7404C115.575 31.8911 114.411 33.0661 113.139 34.2598C111.485 34.2598 109.921 34.0429 108.5 33.6344C109.524 32.79 110.485 31.9491 111.385 31.1152C115.631 27.1827 118.54 23.4034 120.477 20.1337C120.797 19.5933 121.09 19.0669 121.359 18.5559C122.554 16.2832 123.899 13.5085 123.899 10.8598C123.899 6.34977 119.069 3.25977 113.139 3.25977H113.129C107.099 3.25977 102.439 6.52977 102.479 10.8598C102.479 19.5874 116.353 20.0816 121.4 15.9265C119.498 20.3227 115.398 26.5659 107.469 33.2953C106.186 32.8171 105.044 32.1706 104.089 31.3779C104.985 30.7936 105.868 30.135 106.726 29.4288C110.267 26.5148 113.392 22.7903 115.347 20.1337C108.709 20.9174 99.1094 18.8491 99.1094 10.5198C99.1094 4.25977 105.319 0.00976562 113.139 0.00976562Z" fill="#FFD700"/>
<path fill-rule="evenodd" clip-rule="evenodd" d="M92.0696 16.68C86.6896 16.68 82.3996 19.44 82.3996 23.44C82.3996 27.44 87.1296 29.95 92.0696 29.95C96.7196 29.95 101.67 27.55 101.67 23.44C101.67 19.59 97.5296 16.68 92.0696 16.68ZM92.0696 26.93C88.9096 26.93 86.3296 25.4 86.3296 23.15C86.3296 20.9 88.9096 19.41 92.0696 19.41C95.2296 19.41 97.7396 20.86 97.7396 23.15C97.7396 25.44 95.2296 26.93 92.0696 26.93Z" fill="#FFD700"/>
<path d="M92.0696 34.25C84.2496 34.25 77.9996 29.99 77.9996 23.74C77.9996 19.41 79.837 12.9651 88.5703 3.51936C89.6342 2.36869 90.7979 1.19364 92.0696 0C93.724 0 95.2879 0.216885 96.709 0.625378C95.6847 1.46975 94.7241 2.31062 93.8236 3.1446C89.5775 7.0771 86.6688 10.8563 84.7322 14.1261C84.4122 14.6665 84.1187 15.1929 83.8501 15.7038C82.6554 17.9766 81.3096 20.7512 81.3096 23.4C81.3096 27.91 86.1396 31 92.0696 31H92.0796C98.1096 31 102.77 27.73 102.73 23.4C102.73 14.6724 88.8556 14.1782 83.8094 18.3333C85.7107 13.9371 89.8107 7.69382 97.7396 0.964447C99.0228 1.44269 100.165 2.08912 101.12 2.8819C100.223 3.46616 99.341 4.12475 98.4829 4.83094C94.9421 7.74498 91.8166 11.4695 89.8617 14.1261C96.4999 13.3423 106.1 15.4107 106.1 23.74C106.1 30 99.8896 34.25 92.0696 34.25Z" fill="#FFD700"/>
<path fill-rule="evenodd" clip-rule="evenodd" d="M142.97 26.0195V26.0395C142.97 26.0395 143.01 26.0295 143.51 26.0195C143.03 26.0195 142.97 26.0195 142.97 26.0195ZM140.33 27.2895H140.46C140.46 27.2895 140.46 27.2895 140.39 27.2895C140.32 27.2895 140.29 27.2895 140.33 27.2895ZM145.02 27.2895H145.16C145.16 27.2895 145.16 27.2895 145.09 27.2895C145.02 27.2895 144.98 27.2895 145.02 27.2895ZM138.1 27.3495C138.1 27.3495 138.35 27.3495 138.64 27.3495C138.34 27.3495 138.09 27.3495 138.09 27.3495H138.1ZM141.28 27.6195C141.28 27.6195 141.37 27.7095 141.41 27.7695C141.47 27.8495 141.49 27.8695 141.46 27.8295C141.39 27.7395 141.32 27.6495 141.23 27.5695C141.21 27.5595 141.23 27.5695 141.27 27.6195H141.28ZM146.25 28.4495C146.25 28.5195 146.25 28.5395 146.25 28.5095V28.3895C146.25 28.3895 146.25 28.3895 146.25 28.4495ZM139.25 28.4495C139.25 28.4495 139.19 28.5095 139.16 28.5495C139.14 28.5795 139.14 28.5795 139.16 28.5495C139.18 28.5195 139.22 28.4895 139.25 28.4495C139.27 28.4295 139.29 28.4095 139.31 28.3895C139.29 28.4095 139.26 28.4295 139.24 28.4495H139.25ZM141.72 28.8095C141.72 28.9095 141.72 28.9495 141.72 28.8995V28.7195C141.72 28.7195 141.72 28.7095 141.72 28.8095ZM145.09 28.8095C145.09 28.8695 145.09 28.8895 145.09 28.8595C145.09 28.8195 145.09 28.7895 145.09 28.7495C145.09 28.7195 145.09 28.7495 145.09 28.7995V28.8095ZM140.56 29.0195C140.56 29.0795 140.56 29.0995 140.56 29.0695C140.56 29.0395 140.56 28.9995 140.56 28.9695C140.56 28.9395 140.56 28.9695 140.56 29.0195ZM140.25 30.0995C140.18 30.1995 140.09 30.2895 140 30.3695C139.97 30.3995 139.97 30.3995 140 30.3695C140.12 30.2795 140.21 30.1695 140.29 30.0395C140.32 29.9795 140.3 29.9995 140.25 30.0895V30.0995ZM135.65 30.2895C135.65 30.2895 135.57 30.3495 135.54 30.3795C135.54 30.3795 135.61 30.3195 135.65 30.2895C135.7 30.2495 135.71 30.2495 135.71 30.2495C135.69 30.2595 135.67 30.2695 135.65 30.2795V30.2895ZM136.41 30.3295C136.46 30.3795 136.5 30.4295 136.53 30.4895C136.54 30.5195 136.56 30.5295 136.56 30.5295C136.52 30.4495 136.47 30.3695 136.4 30.3095C136.37 30.2795 136.38 30.2895 136.41 30.3295ZM139.44 30.5295H139.56C139.56 30.5295 139.56 30.5295 139.5 30.5295C139.44 30.5295 139.4 30.5295 139.44 30.5295ZM140.94 30.8895C140.88 30.9495 140.82 31.0095 140.79 31.0295C140.88 30.9495 140.97 30.8695 141.05 30.7795C141.05 30.7795 141 30.8195 140.94 30.8795V30.8895ZM138.87 31.0695C138.87 31.0695 138.95 31.1595 139 31.1995C139.02 31.2195 139.02 31.2095 138.99 31.1795C138.96 31.1495 138.92 31.1195 138.9 31.0895C138.88 31.0595 138.86 31.0495 138.87 31.0595V31.0695ZM142.08 31.3595C142.08 31.3595 142.33 31.3595 142.64 31.3595C142.95 31.3595 143.19 31.3595 143.19 31.3595C143.19 31.3595 142.94 31.3595 142.63 31.3595C142.32 31.3595 142.07 31.3595 142.08 31.3595ZM144.68 31.3595C144.68 31.3595 144.94 31.3595 145.24 31.3595H145.79H145.23C144.92 31.3495 144.67 31.3595 144.68 31.3595ZM135.87 31.4195C135.87 31.4195 135.94 31.4195 135.97 31.4195C136 31.4195 135.97 31.4195 135.92 31.4195C135.87 31.4195 135.84 31.4195 135.87 31.4195ZM139.64 31.4195H139.77C139.77 31.4195 139.77 31.4195 139.71 31.4195C139.65 31.4195 139.61 31.4195 139.65 31.4195H139.64ZM137.17 32.8395V32.8595H138.29H137.18V32.8395H137.17Z" fill="#FFD700"/>
<path fill-rule="evenodd" clip-rule="evenodd" d="M129.911 24.2305C127.391 24.3905 125.381 26.3905 125.211 28.9105C125.191 29.2605 125.211 29.6105 125.251 29.9605C125.581 32.2305 127.411 33.9805 129.691 34.2305C129.831 34.2505 130.041 34.2505 134.091 34.2505C138.141 34.2505 138.361 34.2505 138.491 34.2305C139.491 34.1305 140.431 33.7205 141.201 33.0705C141.401 32.8905 141.591 32.7005 141.781 32.5005C142.401 31.7805 142.801 30.9005 142.931 29.9605C142.941 29.8805 142.961 29.7505 142.961 29.6805C142.961 29.6105 142.971 29.5305 142.981 29.5205C142.981 29.3305 142.981 29.1505 142.981 28.9605C142.981 28.9305 142.971 28.8905 142.971 28.8605C142.781 26.4405 140.891 24.5005 138.471 24.2505C138.351 24.2405 138.081 24.2305 134.141 24.2305C131.831 24.2305 129.921 24.2305 129.901 24.2305H129.911ZM135.971 26.0105C135.971 26.0105 135.081 31.3405 135.081 31.3505C135.081 31.3605 136.191 31.3505 136.191 31.3505C136.191 31.3105 136.591 28.9305 136.611 28.8805C136.691 28.5705 136.931 28.3305 137.241 28.2505C137.321 28.2305 137.391 28.2205 137.471 28.2305C137.581 28.2205 137.691 28.2405 137.791 28.2905C137.911 28.3505 138.001 28.4505 138.041 28.5805C138.061 28.6505 138.071 28.7205 138.071 28.7905V28.9305L137.871 30.1405C137.761 30.8105 137.671 31.3605 137.671 31.3605C137.671 31.3605 137.921 31.3605 138.231 31.3605H138.781V31.3405C138.781 31.3405 139.211 28.7805 139.231 28.7005C139.251 28.5305 139.251 28.3605 139.231 28.1905C139.141 27.7105 138.841 27.4105 138.371 27.3105C138.271 27.2905 138.181 27.2905 138.081 27.2905C137.991 27.2905 137.911 27.2905 137.821 27.3005C137.381 27.3605 136.991 27.6305 136.761 28.0205C136.761 28.0305 136.741 28.0405 136.731 28.0405H136.711C136.711 28.0405 136.781 27.5905 136.871 27.0305C136.961 26.4705 137.031 26.0205 137.031 26.0105C137.031 26.0005 137.031 25.9905 136.491 25.9905C136.081 25.9905 135.961 25.9905 135.961 26.0005L135.971 26.0105ZM133.231 27.2905C132.911 27.3205 132.611 27.4605 132.391 27.6905C132.301 27.7805 132.211 27.8905 132.141 28.0005C132.141 28.0105 132.091 28.0205 132.091 28.0005C132.091 27.9805 132.111 27.8505 132.141 27.6705C132.171 27.4905 132.191 27.3505 132.191 27.3405C132.191 27.3305 132.021 27.3405 131.641 27.3405H131.091V27.3605L130.171 32.8405C130.171 32.8405 130.421 32.8405 130.731 32.8405H131.291V32.8205L131.641 30.7005C131.641 30.7005 131.641 30.7005 131.661 30.7005C131.681 30.7005 131.691 30.7205 131.711 30.7805C131.801 31.0405 132.001 31.2505 132.261 31.3405C132.511 31.4205 132.781 31.4305 133.041 31.3705C133.261 31.3205 133.461 31.2305 133.651 31.1105C133.971 30.8905 134.221 30.5905 134.391 30.2405C134.591 29.8105 134.701 29.3405 134.721 28.8605C134.731 28.6305 134.701 28.3905 134.631 28.1705C134.571 27.9805 134.471 27.8005 134.331 27.6505C134.151 27.4605 133.911 27.3405 133.651 27.2905C133.511 27.2805 133.381 27.2705 133.241 27.2905H133.231ZM132.791 28.1905C132.651 28.2005 132.511 28.2505 132.401 28.3305C132.301 28.4105 132.201 28.5105 132.131 28.6105C131.951 28.9005 131.851 29.2305 131.841 29.5605C131.811 29.7905 131.851 30.0305 131.961 30.2305C132.021 30.3305 132.101 30.4005 132.201 30.4505C132.241 30.4705 132.291 30.4905 132.341 30.5005C132.461 30.5205 132.581 30.5205 132.701 30.5005C133.141 30.4105 133.461 29.9505 133.561 29.2605C133.581 29.0905 133.581 28.9205 133.561 28.7505C133.511 28.4905 133.391 28.3105 133.211 28.2305C133.081 28.1805 132.941 28.1605 132.801 28.1705L132.791 28.1905ZM125.211 29.2405C125.211 29.3905 125.211 29.4505 125.211 29.3805V29.1005C125.211 29.0205 125.211 29.0805 125.211 29.2305V29.2405ZM128.941 30.1805C128.861 30.1805 128.781 30.2105 128.701 30.2505C128.531 30.3405 128.401 30.4905 128.351 30.6805C128.331 30.7905 128.331 30.9005 128.351 31.0005C128.411 31.2005 128.561 31.3505 128.761 31.4005C128.991 31.4505 129.241 31.3805 129.401 31.2005C129.521 31.0805 129.591 30.9105 129.591 30.7405C129.591 30.6105 129.551 30.4805 129.461 30.3805C129.331 30.2305 129.131 30.1505 128.931 30.1805H128.941Z" fill="#FFD700"/>
</g>
<defs>
<clipPath id="clip0_2997_282">
<rect width="150" height="34.25" fill="white"/>
</clipPath>
</defs>
</svg>
