<svg width="66" height="72" viewBox="0 0 66 72" fill="none" xmlns="http://www.w3.org/2000/svg">
<g clip-path="url(#clip0_2949_244)">
<mask id="mask0_2949_244" style="mask-type:alpha" maskUnits="userSpaceOnUse" x="0" y="0" width="66" height="72">
<path d="M62.8731 16.2948C64.8007 17.3462 66 19.3665 66 21.5622V50.4386C66 52.6343 64.8007 54.6546 62.8731 55.706L35.8731 70.4332C34.0823 71.4101 31.9177 71.4101 30.1269 70.4332L3.12689 55.706C1.19932 54.6546 0 52.6343 0 50.4386V21.5622C0 19.3665 1.19933 17.3462 3.12689 16.2948L30.1269 1.56758C31.9178 0.590752 34.0823 0.590754 35.8731 1.56758L62.8731 16.2948Z" fill="white"/>
</mask>
<g mask="url(#mask0_2949_244)">
<path d="M63.9154 16.8632C65.2005 17.5642 66 18.9111 66 20.3748V51.6258C66 53.0895 65.2005 54.4364 63.9154 55.1374L34.9154 70.9555C33.7215 71.6068 32.2785 71.6068 31.0846 70.9555L2.08459 55.1374C0.799548 54.4364 0 53.0895 0 51.6258V20.3748C0 18.9111 0.79955 17.5642 2.08459 16.8632L31.0846 1.04506C32.2785 0.393834 33.7215 0.393836 34.9154 1.04506L63.9154 16.8632Z" fill="white"/>
<path d="M33 72V39.5618C33 37.3661 31.8007 35.3458 29.8731 34.2944L2.95771 19.6133C1.62496 18.8863 0 19.851 0 21.3691V54L33 72Z" fill="#EDEFF3"/>
<path d="M66 21.3691C66 19.851 64.375 18.8863 63.0423 19.6133L36.1269 34.2944C34.1993 35.3458 33 37.3661 33 39.5618V72L66 54V21.3691Z" fill="#DADFE7"/>
</g>
</g>
<defs>
<clipPath id="clip0_2949_244">
<rect width="66" height="72" fill="white"/>
</clipPath>
</defs>
</svg>
